<?xml version="1.0" encoding="UTF-8"?>
<svg width="180px" height="90px" viewBox="0 0 180 90" version="1.1" xmlns="http://www.w3.org/2000/svg" xmlns:xlink="http://www.w3.org/1999/xlink">
    <!-- Generator: Sketch 55.2 (78181) - https://sketchapp.com -->
    <title>Logo</title>
    <desc>Created with Sketch.</desc>
    <g id="Logo" stroke="none" stroke-width="1" fill="none" fill-rule="evenodd">
        <polygon id="Roca-1" fill="#FFFFFF" transform="translate(167.172473, 10.506132) rotate(-23.000000) translate(-167.172473, -10.506132) " points="164.202095 3.00613178 170.035428 3.00613178 171.411568 14.4481891 170.035428 18.0061318 164.202095 17.1727984 162.933378 7.8181435"></polygon>
        <polygon id="Roca-2" fill="#FFFFFF" transform="translate(10.223415, 58.272709) scale(-1, 1) rotate(-44.000000) translate(-10.223415, -58.272709) " points="8.24316352 53.2727091 12.1320524 53.2727091 13.0494786 60.9007473 12.1320524 63.2727091 8.24316352 62.7171535 7.39735189 56.4807169"></polygon>
        <polygon id="Roca-3" fill="#FFFFFF" transform="translate(172.445051, 84.371729) rotate(20.000000) translate(-172.445051, -84.371729) " points="171.157887 81.1217291 173.685665 81.1217291 174.281992 86.0799539 173.685665 87.6217291 171.157887 87.260618 170.60811 83.2069342"></polygon>
        <path d="M43.8683776,69.995999 L44.6783776,71.495999 L39.1583776,74.885999 C38.2583731,75.1460003 37.3933817,75.3209985 36.5633776,75.410999 C35.7333734,75.5009994 34.8383824,75.545999 33.8783776,75.545999 C31.5783661,75.545999 29.5433864,75.0360041 27.7733776,74.015999 C26.0033687,72.9959939 24.6283825,71.5910079 23.6483776,69.800999 C22.6683727,68.01099 22.1783776,65.9760104 22.1783776,63.695999 C22.1783776,61.3559873 22.9133702,59.1910089 24.3833776,57.200999 C25.8533849,55.210989 27.6783667,53.6410047 29.8583776,52.490999 C32.0383885,51.3409932 34.1083678,50.765999 36.0683776,50.765999 C37.2483835,50.765999 38.6333696,50.9159975 40.2233776,51.215999 C41.8133855,51.5160005 42.968374,51.8359973 43.6883776,52.175999 L43.6883776,58.505999 L41.8583776,58.505999 C39.9583681,55.2659828 37.4483932,53.645999 34.3283776,53.645999 C32.9483707,53.645999 31.6983832,54.0159953 30.5783776,54.755999 C29.458372,55.4960027 28.5783808,56.5209924 27.9383776,57.830999 C27.2983744,59.1410055 26.9783776,60.6159908 26.9783776,62.255999 C26.9783776,64.1560085 27.2883745,65.8859912 27.9083776,67.445999 C28.5283807,69.0060068 29.4833711,70.2559943 30.7733776,71.195999 C32.063384,72.1360037 33.6583681,72.605999 35.5583776,72.605999 C36.3783817,72.605999 37.0533749,72.5859992 37.5833776,72.545999 C38.1133802,72.5059988 38.7283741,72.386 39.4283776,72.185999 L39.4283776,65.465999 L34.7483776,64.265999 L35.4983776,62.765999 L46.7183776,62.765999 L46.7183776,63.995999 L43.8683776,66.305999 L43.8683776,69.995999 Z M61.4733776,50.765999 C63.6733886,50.765999 65.6183691,51.2759939 67.3083776,52.295999 C68.998386,53.3160041 70.303373,54.72599 71.2233776,56.525999 C72.1433822,58.326008 72.6033776,60.3659876 72.6033776,62.645999 C72.6033776,64.9860107 71.9033846,67.1459891 70.5033776,69.125999 C69.1033706,71.1060089 67.363388,72.6709932 65.2833776,73.820999 C63.2033672,74.9710047 61.223387,75.545999 59.3433776,75.545999 C57.1633667,75.545999 55.233386,75.041004 53.5533776,74.030999 C51.8733692,73.0209939 50.5683822,71.616008 49.6383776,69.815999 C48.7083729,68.01599 48.2433776,65.9760104 48.2433776,63.695999 C48.2433776,61.3559873 48.9433706,59.1910089 50.3433776,57.200999 C51.7433776,55.210989 53.4783672,53.6410047 55.5483776,52.490999 C57.6183879,51.3409932 59.5933682,50.765999 61.4733776,50.765999 Z M59.7333776,53.645999 C58.4933714,53.645999 57.3633827,54.0159953 56.3433776,54.755999 C55.3233725,55.4960027 54.5183805,56.5259924 53.9283776,57.845999 C53.3383746,59.1660056 53.0433776,60.6359909 53.0433776,62.255999 C53.0433776,64.1560085 53.3383746,65.8909911 53.9283776,67.460999 C54.5183805,69.0310068 55.4133716,70.2859943 56.6133776,71.225999 C57.8133836,72.1660037 59.3033687,72.635999 61.0833776,72.635999 C62.3233838,72.635999 63.4583724,72.2660027 64.4883776,71.525999 C65.5183827,70.7859953 66.3283746,69.7610055 66.9183776,68.450999 C67.5083805,67.1409924 67.8033776,65.6760071 67.8033776,64.055999 C67.8033776,62.1359894 67.5083805,60.3910068 66.9183776,58.820999 C66.3283746,57.2509911 65.4283836,55.9960037 64.2183776,55.055999 C63.0083715,54.1159943 61.5133865,53.645999 59.7333776,53.645999 Z M93.0583776,74.945999 L74.5783776,74.945999 L74.5783776,73.715999 L77.3983776,71.495999 L77.3983776,53.825999 L74.2183776,52.865999 L74.9683776,51.365999 L84.6883776,51.365999 L84.6883776,52.595999 L81.8383776,54.815999 L81.8383776,73.205999 L89.1883776,73.205999 L93.6883776,66.635999 L94.8883776,67.085999 L94.8883776,75.485999 L93.0583776,74.945999 Z M115.013378,74.945999 L96.6233776,74.945999 L96.6233776,73.715999 L99.4433776,71.495999 L99.4433776,53.885999 L96.2633776,52.865999 L97.0133776,51.365999 L114.713378,51.365999 L116.543378,50.825999 L116.543378,58.025999 L115.343378,58.475999 L111.713378,53.075999 L103.883378,53.075999 L103.883378,62.045999 L108.113378,62.045999 L110.333378,58.385999 L111.563378,58.385999 L111.563378,67.355999 L110.063378,68.105999 L108.143378,63.755999 L103.883378,63.755999 L103.883378,73.205999 L111.563378,73.205999 L115.643378,67.235999 L116.843378,67.685999 L116.843378,75.485999 L115.013378,74.945999 Z M148.878378,74.945999 L139.158378,74.945999 L139.158378,73.715999 L141.978378,71.495999 L141.978378,55.775999 L134.178378,74.945999 L132.168378,74.945999 L124.368378,55.655999 L124.368378,71.975999 L127.578378,73.445999 L126.828378,74.945999 L119.508378,74.945999 L119.508378,73.715999 L122.328378,71.495999 L122.328378,54.395999 L119.148378,52.865999 L119.898378,51.365999 L127.158378,51.365999 L134.388378,69.365999 L141.588378,51.365999 L149.238378,51.365999 L149.238378,52.595999 L146.388378,54.815999 L146.388378,72.455999 L149.628378,73.445999 L148.878378,74.945999 Z M163.873378,69.785999 C163.873378,69.1659959 163.62838,68.5860017 163.138378,68.045999 C162.648375,67.5059963 162.043381,67.0110012 161.323378,66.560999 C160.603374,66.1109967 159.603384,65.5460024 158.323378,64.865999 C156.82337,64.065995 155.613382,63.3710019 154.693378,62.780999 C153.773373,62.190996 152.988381,61.5010029 152.338378,60.710999 C151.688374,59.920995 151.363378,59.0460038 151.363378,58.085999 C151.363378,57.085994 151.798373,56.0110047 152.668378,54.860999 C153.538382,53.7109932 154.603371,52.7410029 155.863378,51.950999 C157.123384,51.160995 158.283372,50.765999 159.343378,50.765999 C160.623384,50.765999 162.118369,50.9159975 163.828378,51.215999 C165.538386,51.5160005 166.783374,51.8359973 167.563378,52.175999 L167.563378,58.295999 L165.763378,58.295999 C164.843373,56.6759909 163.828383,55.4160035 162.718378,54.515999 C161.608372,53.6159945 160.443384,53.165999 159.223378,53.165999 C158.203372,53.165999 157.40338,53.4809958 156.823378,54.110999 C156.243375,54.7410021 155.953378,55.555994 155.953378,56.555999 C155.953378,57.2160023 156.203375,57.8309961 156.703378,58.400999 C157.20338,58.9710018 157.828374,59.4859967 158.578378,59.945999 C159.328381,60.4060013 160.343371,60.9659957 161.623378,61.625999 C163.083385,62.3860028 164.273373,63.0559961 165.193378,63.635999 C166.113382,64.2160019 166.888374,64.8959951 167.518378,65.675999 C168.148381,66.4560029 168.463378,67.3159943 168.463378,68.255999 C168.463378,69.256004 167.998382,70.3309932 167.068378,71.480999 C166.138373,72.6310047 165.003384,73.600995 163.663378,74.390999 C162.323371,75.1810029 161.103383,75.575999 160.003378,75.575999 C158.663371,75.575999 157.068387,75.4260005 155.218378,75.125999 C153.368368,74.8259975 152.033382,74.5060007 151.213378,74.165999 L151.213378,68.045999 L153.043378,68.045999 C154.003382,69.6660071 155.103371,70.9259945 156.343378,71.825999 C157.583384,72.7260035 158.853371,73.175999 160.153378,73.175999 C161.273383,73.175999 162.173374,72.8410023 162.853378,72.170999 C163.533381,71.5009956 163.873378,70.7060036 163.873378,69.785999 Z M55.8425572,46.150166 L41.30337,46.150166 L33.8165895,31.9486414 L32.0299714,30.9461808 L33.3061272,28.4400294 L35.0502067,28.4400294 C36.3263689,28.4400294 37.3331039,27.9875344 38.0704421,27.0825308 C38.8077802,26.1775271 39.1764437,24.9035796 39.1764437,23.2606499 C39.1764437,21.4506426 38.7014349,19.995697 37.7514031,18.8957695 C36.8013713,17.795842 35.4047037,17.2458865 33.5613584,17.2458865 C32.4553512,17.2458865 31.4202574,17.5661138 30.456046,18.2065779 L30.456046,41.5137859 L35.3479764,42.7668616 L33.6464354,46.1083968 L14.870002,46.1083968 L14.870002,43.1427843 L18.9333776,41.5137859 L18.9333776,20.4412296 L11.1684609,18.8957695 L12.870002,13.3195827 L26.4999631,13.3195827 C28.8821324,13.3195827 31.2359073,13.2360451 33.5613584,13.0689675 C35.2629079,12.9575825 36.5106922,12.9018908 37.3047486,12.9018908 C39.6301996,12.9018908 41.6932975,13.2847712 43.4941041,14.0505435 C45.2949107,14.8163158 46.6915783,15.8674966 47.6841489,17.2041173 C48.6767194,18.5407381 49.1729973,20.0444139 49.1729973,21.7151899 C49.1729973,23.6087359 48.3293249,25.3630244 46.641955,26.9781078 C44.954585,28.5931912 43.8273352,29.0272541 41.30337,29.9461808 L48.6110079,31.7815646 L53.5029383,41.0125556 L57.5440983,42.8086308 L55.8425572,46.150166 Z M85.8922176,19.3761152 L85.8922176,33.2017171 C85.8922176,36.125575 85.1336215,38.6317013 83.6164065,40.7201713 C82.0991915,42.8086412 80.2204254,44.3749702 77.9800518,45.4192051 C75.7396783,46.4634401 73.5560558,46.9855498 71.4291189,46.9855498 C68.5648439,46.9855498 66.0054682,46.4355943 63.750915,45.3356668 C61.4963619,44.2357393 59.7381204,42.7181405 58.4761378,40.7828251 C57.2141553,38.8475096 56.5831735,36.668572 56.5831735,34.2459468 L56.5831735,17.788886 L51.7337815,16.6611179 L53.4353226,13.3195827 L71.5623303,13.3195827 L71.5623303,16.2851952 L67.5211704,19.3761152 L67.5211704,33.0764095 C67.5211704,35.6939585 68.2301387,38.2579958 69.6480966,39.7199248 C71.0660546,41.1818537 71.4291044,41.3884783 74.3217386,41.3884783 C75.4277458,41.3884783 76.5266468,41.0752125 77.6184744,40.4486715 C78.710302,39.8221306 79.6177815,38.910179 80.34094,37.7127896 C81.0640986,36.5154002 81.4256724,35.1091848 81.4256724,33.4941014 L81.4256724,18.4154239 L76.1508952,16.6611179 L77.8524363,13.3195827 L89.9333776,13.3195827 L89.9333776,16.2851952 L85.8922176,19.3761152 Z M107.053751,12.9018908 C110.400132,12.9018908 113.35653,13.5910755 115.923034,14.9694657 C118.489538,16.3478558 120.481739,18.2622579 121.899697,20.7127293 C123.317655,23.1632007 124.026623,25.9338626 124.026623,29.0247981 C124.026623,32.1992724 122.97026,35.1300479 120.857503,37.8172126 C118.744745,40.5043772 116.121563,42.6345846 112.987875,44.2078986 C109.854188,45.7812127 106.869432,46.5678579 104.033516,46.5678579 C102.785713,46.5678579 101.523749,46.4982432 100.247587,46.3590119 C98.2057276,46.2197806 96.6034592,46.150166 95.4407336,46.150166 L87.9114146,46.150166 L87.9114146,43.1845535 L91.910036,40.0936334 L91.910036,18.0812703 L84.5533776,16.6611179 L85.5842565,13.3195827 L95.3981951,13.3195827 C97.9788786,13.3195827 100.516985,13.2360451 103.012591,13.0689675 C104.827577,12.9575825 106.174617,12.9018908 107.053751,12.9018908 Z M106.273221,42.2238621 C107.256625,42.2238621 108.158064,41.7365598 108.977567,40.7619405 C109.79707,39.7873212 110.444036,38.443759 110.918485,36.7312136 C111.392934,35.0186683 111.630155,33.1042662 111.630155,30.98795 C111.630155,28.4539398 111.40156,26.1496959 110.944364,24.0751491 C110.487168,22.0006023 109.788444,20.3437743 108.848172,19.1046155 C107.907901,17.8654567 106.747675,17.2458865 105.36746,17.2458865 C104.798121,17.2458865 102.882436,17.4825762 102.382108,17.9559628 L102.382108,41.5555551 C103.123974,42.0010953 105.341576,42.2238621 106.273221,42.2238621 Z M123.130607,46.150166 L123.130607,43.1845535 L127.129228,40.0936334 L127.129228,17.9559628 L122.279837,16.6611179 L123.981378,13.3195827 L152.818115,13.3195827 L156.774198,9.73310836 L159.838378,23.2181583 L153.371116,25.0984942 L148.011262,17.2876557 L139.902128,17.2876557 L139.902128,27.3957997 L142.821561,27.3957997 L145.926874,23.0935731 L148.947109,23.0935731 L148.947109,34.9560231 L145.544027,36.6267907 L142.693946,31.3638727 L139.902128,31.3638727 L139.902128,42.1820929 L147.628415,42.1820929 L153.796501,33.5358706 L156.774198,34.7889463 L159.838378,46.150166 L123.130607,46.150166 Z" id="GOLEMS" fill="#FFFFFF" fill-rule="nonzero"></path>
    </g>
</svg>